<svg xmlns="http://www.w3.org/2000/svg" viewBox="0 0 128 128" width="128" height="128">
  <defs>
    <linearGradient id="bg" x1="0%" y1="0%" x2="100%" y2="100%">
      <stop offset="0%" stop-color="#3B82F6" />
      <stop offset="100%" stop-color="#1E3A8A" />
    </linearGradient>
    <filter id="shadow" x="-20%" y="-20%" width="140%" height="140%">
      <feDropShadow dx="0" dy="4" stdDeviation="4" flood-color="#000000" flood-opacity="0.25"/>
    </filter>
  </defs>
  <rect width="128" height="128" rx="28" fill="url(#bg)" />
  <path d="M 32 28 Q 32 20 40 20 L 88 20 Q 96 20 96 28 L 96 100 L 88 108 L 80 100 L 72 108 L 64 100 L 56 108 L 48 100 L 40 108 L 32 100 Z" fill="#FFFFFF" filter="url(#shadow)" />
  <rect x="48" y="28" width="32" height="8" rx="4" fill="#94A3B8" />
  <rect x="48" y="44" width="16" height="8" rx="4" fill="#94A3B8" />
  <path d="M 48 76 L 64 60 L 80 76" fill="none" stroke="#2563EB" stroke-width="8" stroke-linecap="round" stroke-linejoin="round" />
  <path d="M 48 92 L 64 76 L 80 92" fill="none" stroke="#2563EB" stroke-width="8" stroke-linecap="round" stroke-linejoin="round" />
</svg>